<svg width="34" height="34" viewBox="0 0 34 34" fill="none" xmlns="http://www.w3.org/2000/svg">
<rect x="1.0542" y="0.769928" width="31.7333" height="32.3943" rx="6.5" fill="white" stroke="#F8F8F8"/>
<path d="M13.2121 20.243L13.2121 20.2431C13.9791 20.9601 14.7451 21.5686 15.3287 22.0035C15.6199 22.2206 15.8644 22.3934 16.0391 22.5137C16.1264 22.5739 16.1961 22.6209 16.2452 22.6535C16.2972 22.6881 16.3213 22.7035 16.32 22.7027L16.3311 22.7096L16.331 22.7097L16.6481 22.9155L16.9651 22.7097L16.9653 22.7096C17.0178 22.6755 18.5438 21.6813 20.0841 20.243H13.2121ZM13.2121 20.243C12.2859 19.3775 11.5562 18.5384 11.0346 17.7512M13.2121 20.243L11.0346 17.7512M11.0346 17.7512C10.7058 17.2544 10.4554 16.7727 10.284 16.3199L11.0346 17.7512ZM22.1935 12.0934L22.194 12.0939L10.2853 13.2995C10.4778 12.847 10.7558 12.4377 11.1032 12.0945L11.1032 12.0945L11.1042 12.0936C11.455 11.7458 11.8621 11.4736 12.3141 11.2842L12.3149 11.2839C12.7822 11.0874 13.2764 10.9882 13.7895 10.9882C14.5004 10.9882 15.1931 11.1851 15.7952 11.5569L15.7952 11.5569C15.9393 11.6459 16.0757 11.7433 16.2047 11.8493L16.6489 12.214L17.0931 11.8493C17.2221 11.7433 17.3586 11.6459 17.5026 11.5569L17.5027 11.5569C18.1047 11.1851 18.7975 10.9882 19.5083 10.9882L19.5099 10.9882C20.0152 10.987 20.5159 11.0874 20.9829 11.2839L20.9839 11.2842C21.434 11.4728 21.8447 11.7473 22.1935 12.0934ZM23.6567 13.0256L23.0125 13.2995C23.0125 13.2996 23.0126 13.2997 23.0126 13.2998C23.0127 13.3 23.0128 13.3001 23.0129 13.3003L23.6567 13.0256ZM22.2616 17.7512C21.74 18.5384 21.0103 19.3774 20.0843 20.2429L22.2616 17.7512ZM9.98308 14.7843C9.98308 14.2693 10.0851 13.7704 10.2853 13.2995L10.2839 16.3195C10.0799 15.7794 9.98308 15.2644 9.98308 14.7843Z" stroke="#ECECEC" stroke-width="1.4"/>
</svg>
