<svg width="34" height="35" viewBox="0 0 34 35" fill="none" xmlns="http://www.w3.org/2000/svg">
<rect x="0.6875" y="0.705627" width="32.7333" height="33.3943" rx="7" fill="#FEF0F0"/>
<path d="M23.79 13.4613C23.5615 12.9256 23.2319 12.4402 22.8198 12.0322C22.4074 11.623 21.9212 11.2978 21.3876 11.0743C20.8343 10.8416 20.2408 10.7225 19.6416 10.7239C18.801 10.7239 17.9809 10.9569 17.2682 11.397C17.0977 11.5023 16.9357 11.618 16.7822 11.744C16.6288 11.618 16.4668 11.5023 16.2963 11.397C15.5836 10.9569 14.7634 10.7239 13.9229 10.7239C13.3176 10.7239 12.731 10.8413 12.1769 11.0743C11.6415 11.2987 11.159 11.6214 10.7446 12.0322C10.332 12.4397 10.0024 12.9253 9.77445 13.4613C9.53745 14.0188 9.41639 14.6108 9.41639 15.2201C9.41639 15.7948 9.53233 16.3937 9.76252 17.003C9.95519 17.5121 10.2314 18.0403 10.5844 18.5736C11.1436 19.4176 11.9126 20.2979 12.8674 21.1902C14.4497 22.6693 16.0167 23.6911 16.0832 23.7325L16.4873 23.9949C16.6663 24.1105 16.8965 24.1105 17.0755 23.9949L17.4796 23.7325C17.5461 23.6894 19.1113 22.6693 20.6953 21.1902C21.6502 20.2979 22.4192 19.4176 22.9784 18.5736C23.3314 18.0403 23.6093 17.5121 23.8002 17.003C24.0304 16.3937 24.1464 15.7948 24.1464 15.2201C24.1481 14.6108 24.027 14.0188 23.79 13.4613Z" fill="#FF8585"/>
</svg>
